<svg id="Layer_1" data-name="Layer 1" xmlns="http://www.w3.org/2000/svg" viewBox="0 0 1366 512.97"><defs><style>.cls-1{fill:#840202;}</style></defs><title>благословенный кавказ</title><path class="cls-1" d="M163.32,377.83h-26v-1h7v-60.6h-7v-1h33.78c4.88,0,5.75-2.44,6.27-3.92h.7v6.09a57.38,57.38,0,0,0,1,9.32h-.78c-2.26-7.4-3.66-10.45-7.58-10.45h-19.5v27.95A35.73,35.73,0,0,1,163,342.22c14.71,0,19.59,10.62,19.59,17.5C182.57,368.08,177.08,377.83,163.32,377.83Zm-3.4-34.13a28.54,28.54,0,0,0-8.71,1.48v31.61H159c11.75,0,16.63-9.75,16.63-17.06C175.6,353.63,171.42,343.7,159.93,343.7Z"/><path class="cls-1" d="M210.95,336c0-7.4-1.57-13.41-3.48-19.85h-6.62v-1h20.9v1H215.3c4.09,16.89,14.19,46.75,20.2,60.6h6.09v1H220.7v-1h7.05c-5.14-12-12.8-35.44-15.85-47.1.17,2.09.26,4.35.26,6.36,0,9-1.22,16.37-5.31,24.81-3.13,6.44-9.66,15.58-16.89,17.41a15,15,0,0,1-4.09.61c-1.92,0-5.22-.61-5.22-3.13,0-1.48,1.48-2,2.7-2,1.39,0,4.35,1,7.31,1,6.79-.09,12.54-8.88,15.06-14.37A54.39,54.39,0,0,0,210.95,336Z"/><path class="cls-1" d="M271.28,377.83v-1h7V361.2c-3.83,8.18-10.54,17.67-21.07,17.67-11.32,0-16.28-6-16.28-11.49,0-10.45,8.53-17.94,24.64-34.74l12.71-13.23v-3.22h-7v-1h20.9v1h-7v60.6h7v1Zm7-56.59L261.7,340c-9.4,10.62-13.23,18.81-13.23,27.51,0,4.53,2.44,9.32,8.71,9.32,11.06,0,16.63-8.71,21.07-18.46Z"/><path class="cls-1" d="M337.45,329.08v-.87c0-7.23-1.39-12-6.44-12H311.33v60.6h7v1H297.4v-1h7v-60.6h-7v-1h36.22a3.8,3.8,0,0,0,3.92-3.57h.78v17.5Z"/><path class="cls-1" d="M338.06,346.49c0-14.37,9.06-32.39,24.73-32.39,15.5,0,24.38,17,24.38,32.39,0,14.54-8.71,32.39-24.47,32.39S338.06,360.42,338.06,346.49Zm24.73-31.34c-13.93,0-17.24,20.9-17.24,31.34,0,11.32,3.4,31.34,17.15,31.34s17-19.24,17-31.34C379.68,334.82,376.72,315.15,362.78,315.15Z"/><path class="cls-1" d="M421.9,377.83c10.54,0,16.11-6.44,20.72-15.5l1.13.44c-4.79,9-10,16.11-21.85,16.11-21.85,0-28.64-19.07-28.64-32.39s7.57-32.39,27.51-32.39c9.75,0,13.58,2.26,17.24,3.83l.78-3.83h1.74a22,22,0,0,0-1.13,6.79,21,21,0,0,0,1.31,7.14l-1.57.52c-3-8.62-5.22-13.41-18.37-13.41-15.06,0-20,18.63-20,31.34C400.74,357.46,403.7,377.83,421.9,377.83Z"/><path class="cls-1" d="M471.27,336c0-7.4-1.57-13.41-3.48-19.85h-6.62v-1h20.9v1h-6.44c4.09,16.89,14.19,46.75,20.2,60.6h6.09v1H481v-1h7.05c-5.14-12-12.8-35.44-15.85-47.1.17,2.09.26,4.35.26,6.36,0,9-1.22,16.37-5.31,24.81-3.13,6.44-9.66,15.58-16.89,17.41a15,15,0,0,1-4.09.61c-1.92,0-5.22-.61-5.22-3.13,0-1.48,1.48-2,2.7-2,1.39,0,4.35,1,7.31,1,6.79-.09,12.54-8.88,15.06-14.37A54.39,54.39,0,0,0,471.27,336Z"/><path class="cls-1" d="M503.65,346.49c0-14.37,9.06-32.39,24.73-32.39,15.5,0,24.38,17,24.38,32.39,0,14.54-8.71,32.39-24.47,32.39S503.65,360.42,503.65,346.49Zm24.73-31.34c-13.93,0-17.24,20.9-17.24,31.34,0,11.32,3.4,31.34,17.15,31.34s17-19.24,17-31.34C545.27,334.82,542.31,315.15,528.38,315.15Z"/><path class="cls-1" d="M582.79,346.49c11.32,0,17,7.49,17,15.41s-5.57,15.93-16.89,15.93H558v-1h7v-60.6h-7v-1h18.2c10.45,0,15.76,7.23,15.76,14.1s-5.4,14.19-15.67,14.19h-4.35v3Zm-10-4.09c8.45,0,12.8-6.27,12.8-13.15,0-6.62-4.18-13.06-13.67-13.06V342.4Zm-.87,34.39h4.44c11.41,0,16.46-6.62,16.46-14.89,0-7.92-5.31-14.37-16.54-14.37h-4.35Z"/><path class="cls-1" d="M627.89,353.63v-5.49a3.89,3.89,0,0,0-4.27-4.09h-4.7v32.74h20.72c6,0,7.31-4.79,7.31-12v-.87h.87v17.5H647a3.8,3.8,0,0,0-3.92-3.57H605v-1h7v-60.6h-7v-1h37.09a3.8,3.8,0,0,0,3.92-3.57h.78v17.5h-.87v-.87c0-7.23-1.83-12-7.31-12H618.92V343h5a3.82,3.82,0,0,0,4-3.92V334.3h1v19.33Z"/><path class="cls-1" d="M665.24,344.05v32.74h7v1h-20.9v-1h7v-60.6h-7v-1h20.9v1h-7V343H693.1V316.19h-7v-1H707v1h-7v60.6h7v1h-20.9v-1h7V344.05Z"/><path class="cls-1" d="M726.18,344.05v32.74h7v1h-20.9v-1h7v-60.6h-7v-1h20.9v1h-7V343H754V316.19h-7v-1H768v1h-7v60.6h7v1h-20.9v-1h7V344.05Z"/><path class="cls-1" d="M787.13,316.19V343h10.45C808.9,343,815,352.5,815,360.42s-6.09,17.41-17.41,17.41H773.2v-1h7v-60.6h-7v-1h20.9v1Zm0,60.6h3.22c11.41,0,17.33-8.1,17.33-16.37,0-7.92-4.7-16.37-17.33-16.37h-3.22Zm27.86,1v-1h7v-60.6h-7v-1h20.9v1h-7v60.6h7v1Z"/><path class="cls-1" d="M841.11,377.83v-1h7v-60.6h-7v-1H862v1h-7v49.63l27.86-41.88v-7.75h-7v-1h20.9v1h-7v60.6h7v1h-20.9v-1h7V325.85l-27.86,42v9h7v1Zm26.47-59c0-7.75,2.09-12.36,3.13-13.93,2.87-4.61,6-6.53,8.27-6.53a2.71,2.71,0,0,1,2.87,2.44,3.44,3.44,0,0,1-1.39,2.61c-1.31,1.13-5.14,2.87-7.84,5.57-3.66,3.74-3.83,8.79-3.83,13.58v1.39h-1C867.66,322.11,867.58,320.37,867.58,318.8Z"/><path class="cls-1" d="M942.1,316.19v26.56h5.31c2.7-5.83,6-12.89,9.14-17.15,5.92-8,11.06-11.49,14.54-11.49s5.83,1.57,5.83,4.44a2.73,2.73,0,0,1-2.7,3c-3.13,0-3.13-4-6.88-4-2.79,0-6.7,4.44-9.75,8.53s-6.27,10.36-9.06,16.8c8.27,1,10.71,7.23,13.58,15.24,4.09,11.58,6.36,19.68,13.58,19.68a8.67,8.67,0,0,0,6-3l.52.52c-1.31,1.92-4.27,3.57-8,3.57-9.05,0-13.93-9-16.19-15.85-3.57-10.8-6.36-19.24-15.24-19.24h-.7v33h7v1h-20.9v-1h7v-60.6h-7v-1h20.9v1Z"/><path class="cls-1" d="M1008.36,377.83v-1h7V361.2c-3.83,8.18-10.54,17.67-21.07,17.67-11.32,0-16.28-6-16.28-11.49,0-10.45,8.53-17.94,24.64-34.74l12.71-13.23v-3.22h-7v-1h20.9v1h-7v60.6h7v1Zm7-56.59L998.78,340c-9.4,10.62-13.23,18.81-13.23,27.51,0,4.53,2.44,9.32,8.71,9.32,11.06,0,16.63-8.71,21.07-18.46Z"/><path class="cls-1" d="M1059.29,346.49c11.32,0,17,7.49,17,15.41s-5.57,15.93-16.89,15.93h-24.9v-1h7v-60.6h-7v-1h18.2c10.45,0,15.76,7.23,15.76,14.1s-5.4,14.19-15.67,14.19h-4.35v3Zm-10-4.09c8.45,0,12.8-6.27,12.8-13.15,0-6.62-4.18-13.06-13.67-13.06V342.4Zm-.87,34.39h4.44c11.41,0,16.46-6.62,16.46-14.89,0-7.92-5.31-14.37-16.54-14.37h-4.35Z"/><path class="cls-1" d="M1095.42,316.19v26.56h5.31c2.7-5.83,6-12.89,9.14-17.15,5.92-8,11.06-11.49,14.54-11.49s5.83,1.57,5.83,4.44a2.73,2.73,0,0,1-2.7,3c-3.13,0-3.13-4-6.88-4-2.79,0-6.7,4.44-9.75,8.53s-6.27,10.36-9.06,16.8c8.27,1,10.71,7.23,13.58,15.24,4.09,11.58,6.36,19.68,13.58,19.68a8.67,8.67,0,0,0,6-3l.52.52c-1.31,1.92-4.27,3.57-8,3.57-9.05,0-13.93-9-16.19-15.85-3.57-10.8-6.36-19.24-15.24-19.24h-.7v33h7v1h-20.9v-1h7v-60.6h-7v-1h20.9v1Z"/><path class="cls-1" d="M1161.67,377.83v-1h7V361.2c-3.83,8.18-10.54,17.67-21.07,17.67-11.32,0-16.28-6-16.28-11.49,0-10.45,8.53-17.94,24.64-34.74l12.71-13.23v-3.22h-7v-1h20.9v1h-7v60.6h7v1Zm7-56.59L1152.09,340c-9.4,10.62-13.23,18.81-13.23,27.51,0,4.53,2.44,9.32,8.71,9.32,11.06,0,16.63-8.71,21.07-18.46Z"/><path class="cls-1" d="M1183,423.46l-.44-1c21.42-6.79,40.49-16.89,40.49-46.06,0-15-4.61-23.51-13-23.51-3.74,0-5.92,2.09-7.49,4.18l-1.48-1.22c8.18-7.66,18.2-27.08,22.72-39.7h-31.34a30.55,30.55,0,0,1,1.74,9.67,15.21,15.21,0,0,1-4.44,11l-.7-.78c1.83-2.7,2.18-4.53,2.18-7.75a15.91,15.91,0,0,0-6.27-13.15h40.66c-2.87,9.66-12.28,27.86-18.89,36.74a41.9,41.9,0,0,1,4.35-.78c11.93,0,19.42,11.67,19.42,25.34C1230.54,400.82,1207.38,416.93,1183,423.46Z"/><path class="cls-1" d="M717.56,171c.6-22.5,3.3-43.57,8.95-56a21,21,0,0,1-28.67,0c5.65,12.48,8.34,33.55,8.95,56-23.39-.55-44.78-4.53-53.18-7.68,3.84,4.07,5.2,10.4,5.2,15.49s-1.36,11.42-5.2,15.49c8.41-3.16,29.85-7.14,53.28-7.68-.41,29.81-4.06,59.27-9,72.34a34.87,34.87,0,0,1,28.67,0c-5-13.06-8.64-42.52-9-72.34,23.43.54,44.86,4.53,53.28,7.68-3.84-4.07-5.2-10.4-5.2-15.49s1.36-11.42,5.2-15.49C762.34,166.43,741,170.41,717.56,171Zm-51.08,11.86a36.18,36.18,0,0,0,0-8.1,251,251,0,0,0,37.14,4A251,251,0,0,0,666.49,182.82Zm45.69-54.34c.63,0,1.27,0,1.9-.08-.75,3.45-1.38,7-1.9,10.68-.53-3.64-1.16-7.22-1.9-10.68C710.91,128.45,711.54,128.48,712.18,128.48Zm0,119.45c-.82,0-1.92.05-3.2.18,1.23-5.91,2.31-12.78,3.2-20.27.89,7.49,2,14.35,3.2,20.27C714.09,248,713,247.93,712.18,247.93Zm0-67.22a7.9,7.9,0,0,0-4.14-1.95,7.9,7.9,0,0,0,4.14-2,7.9,7.9,0,0,0,4.14,2A7.9,7.9,0,0,0,712.18,180.71Zm45.69,2.11a251,251,0,0,0-37.14-4,251,251,0,0,0,37.14-4,36.18,36.18,0,0,0,0,8.1Z"/><path class="cls-1" d="M720.85,104.28a8.67,8.67,0,1,0-8.67,8.67A8.68,8.68,0,0,0,720.85,104.28Zm-13.34,0a4.67,4.67,0,1,1,4.67,4.67A4.67,4.67,0,0,1,707.51,104.28Z"/><path class="cls-1" d="M712.18,263.11a8.67,8.67,0,1,0,8.67,8.67A8.68,8.68,0,0,0,712.18,263.11Zm0,13.34a4.67,4.67,0,1,1,4.67-4.67A4.67,4.67,0,0,1,712.18,276.45Z"/><path class="cls-1" d="M642.16,170.08a8.67,8.67,0,1,0,8.67,8.67A8.68,8.68,0,0,0,642.16,170.08Zm0,13.34a4.67,4.67,0,1,1,4.67-4.67A4.67,4.67,0,0,1,642.16,183.42Z"/><path class="cls-1" d="M782.22,170.08a8.67,8.67,0,1,0,8.67,8.67A8.68,8.68,0,0,0,782.22,170.08Zm0,13.34a4.67,4.67,0,1,1,4.67-4.67A4.67,4.67,0,0,1,782.22,183.42Z"/><path class="cls-1" d="M1210.76,239.9c-6.76-1.7-13.42-3.77-20.09-5.8-13.32-4.13-26.5-8.73-39.67-13.38l-19.77-7c-6.61-2.31-13.22-4.61-20-6.7a93.31,93.31,0,0,0-10.49-2.72c-3.55-.63-7.12-1.08-10.66-1.37-7.1-.61-14.11-.79-21-1.2a159.35,159.35,0,0,1-20.36-2.18c-1.65-.35-3.32-.62-4.95-1l-2.45-.59c-.81-.21-1.62-.46-2.42-.69a73.49,73.49,0,0,1-9.44-3.39,165.15,165.15,0,0,1-18.2-9.47c-3-1.74-6-3.54-8.95-5.34l-4.48-2.72-4.46-2.78c-6-3.66-12-7.46-18.22-10.94-3.12-1.75-6.31-3.43-9.6-4.95s-6.69-3-10-4.18c-6.71-2.53-13.57-4.71-20.44-6.61s-13.71-3.54-20.37-5.2-13.11-3.48-19.4-5.72c-1.55-.51-3.22-1.22-4.83-1.82-.8-.33-1.64-.59-2.43-.87s-1.47-.54-2.21-.85c-3-1.19-6-2.67-9.06-4.12-6.08-3-12.21-6.18-18.28-9.51S846.41,112,840.4,108.45c-3-1.74-6-3.56-9-5.39s-5.92-3.69-8.87-5.56-6.12-3.74-9.19-5.52-6.19-3.45-9.28-5.17c-6.22-3.35-12.42-6.7-18.68-9.91s-12.55-6.33-18.85-9.4l-4.71-2.3L757.16,63c-1.61-.76-3.35-1.56-5.08-2.26s-3.55-1.3-5.36-1.86a55,55,0,0,0-11.14-2.23,56.32,56.32,0,0,0-11,.42l-5.34.63c-.88.11-1.77.19-2.64.24l-2.75.2a32.77,32.77,0,0,0-5.89,1.08c-1.87.54-3.64,1.22-5.39,1.9A133.71,133.71,0,0,0,683.08,71c-1.49.94-2.92,1.94-4.36,2.89s-2.81,2-4.16,3c-2.72,2-5.26,4.23-7.9,6.22a52.6,52.6,0,0,1-8.17,5.15c-.7.35-1.41.67-2.13,1-.36.15-.72.28-1.08.42l-1.16.4-.57.21.28-.46c-3.36-1-6.41-2-9.51-3s-6.11-2.21-9.13-3.37c-6-2.33-12-4.74-17.93-7.15A144.7,144.7,0,0,0,598.89,70a57.13,57.13,0,0,0-9.84-1.74c-.87,0-1.7-.09-2.61-.08l-1.42.07h-.1a15.09,15.09,0,0,0-1.81.27c-.71.13-1.4.31-2.09.47s-1.67.51-2.47.81a69.57,69.57,0,0,0-9,4.28c-2.86,1.58-5.61,3.25-8.33,4.95-5.45,3.36-10.76,6.82-16.12,10.06a161.42,161.42,0,0,1-16.27,8.83,56.53,56.53,0,0,1-16.68,5l-.36,0-.34.11-4.13,1.34c-1.31.49-2.54,1-3.82,1.55s-2.45,1.09-3.68,1.64-2.44,1.12-3.57,1.74c-2.32,1.21-4.62,2.46-6.78,3.85s-4.29,2.83-6.36,4.32c-8.29,5.94-16.08,12.3-23.85,18.52-3.89,3.1-7.76,6.17-11.65,9-1,.68-1.95,1.42-2.91,2.05s-1.93,1.28-2.85,1.8a26.94,26.94,0,0,1-2.71,1.33c-1,.37-2,.71-3.14,1-2.24.63-4.7,1.21-7.21,1.88-1.26.33-2.53.7-3.81,1.1a32.92,32.92,0,0,0-4,1.49,59,59,0,0,0-7.16,3.87c-2.22,1.38-4.39,2.77-6.49,4.21-4.22,2.87-8.3,5.84-12.33,8.84s-8,6.07-11.91,9.16-8,6.19-12,9.21A116.85,116.85,0,0,0,344,189.59a78.16,78.16,0,0,0-8,1l-2,.38-2,.49c-1.33.3-2.61.73-3.91,1.11a127.64,127.64,0,0,0-14.87,6c-4.81,2.18-9.52,4.46-14.27,6.39-1.19.47-2.38,1-3.57,1.38l-1.79.64-1.8.57c-1.2.41-2.41.66-3.61,1-.6.15-1.2.24-1.8.36s-1.19.25-1.8.31a53.72,53.72,0,0,1-7.41.47c-2.54,0-5.09-.12-7.73-.22s-5.31-.2-8-.11c-1.36,0-2.72.1-4.09.23s-2.74.27-4.1.45a62.92,62.92,0,0,0-15.82,4.45c-5,2-9.79,4.31-14.48,6.75l-14,7.3c-4.64,2.42-9.31,4.7-14,6.92a185,185,0,0,1-60.25,16A183.77,183.77,0,0,0,166.06,248a179.93,179.93,0,0,0,30.38-9.13c9.86-3.88,19.3-8.7,28.75-13.08q7.07-3.33,14.31-6A61.42,61.42,0,0,1,254,216.31c1.24-.14,2.47-.29,3.73-.34s2.5-.12,3.77-.14,2.54,0,3.82,0l3.89.07a80.86,80.86,0,0,0,16.28-.75c1.38-.22,2.76-.58,4.11-.9s2.67-.74,3.94-1.22l1.93-.68,1.89-.74c1.27-.48,2.49-1,3.73-1.56,4.91-2.16,9.6-4.58,14.29-6.87a143,143,0,0,1,14.15-6.21,65.74,65.74,0,0,1,14.82-3.43,187.76,187.76,0,0,1,24.48-.81c-3.21,2.39-6.44,4.75-9.71,7-4.07,2.85-8.18,5.64-12.39,8.27s-8.48,5.16-12.9,7.4a108.19,108.19,0,0,1-13.63,5.92,54.47,54.47,0,0,1-14.58,3,52.62,52.62,0,0,0,15-1.63A99.64,99.64,0,0,0,335,218c4.69-1.91,9.26-4.1,13.74-6.43s8.91-4.79,13.23-7.39c8.67-5.17,17.09-10.7,25.44-16.28,4.19-2.77,8.29-5.64,12.42-8.44s8.18-5.67,12.29-8.35c2.05-1.35,4.11-2.64,6.19-3.82,1-.62,2.08-1.13,3.11-1.7l1.54-.74c.25-.12.52-.25.76-.36l.72-.28a18.73,18.73,0,0,1,3.08-1c1.13-.28,2.28-.55,3.45-.79,2.35-.5,4.8-.92,7.42-1.5,1.31-.29,2.66-.63,4.06-1.08a40.32,40.32,0,0,0,4.15-1.71c1.31-.63,2.43-1.3,3.65-2s2.25-1.37,3.38-2.05c4.4-2.78,8.59-5.65,12.69-8.57l24.29-17.38c2-1.39,4-2.81,6-4.22l5.85-4.27c1-.74,1.94-1.36,2.92-2s2-1.38,2.94-1.91,2-1.14,3-1.64l2.89-1.2q1.94-.37,3.8-.88a74.82,74.82,0,0,1-5.06,6.06,58.69,58.69,0,0,1-8.44,7.52c-3.09,2.26-6.49,4.27-9.9,6.4a116.48,116.48,0,0,0-10.06,6.78,70.83,70.83,0,0,0-8.76,8.37l-8,8.84c-2.7,2.91-5.47,5.74-8.34,8.47l.69.73c5.82-5.41,11.41-11.14,17.06-16.67a68.45,68.45,0,0,1,9.06-7.41,82.78,82.78,0,0,1,10.29-5.58c3.57-1.66,7.26-3.22,11-5.11A65.34,65.34,0,0,0,518,123.59a84.87,84.87,0,0,0,9.27-8.48c1.44-1.55,2.84-3.16,4.17-4.86.67-.85,1.33-1.71,2-2.62.32-.45.63-.92.95-1.4l.47-.74c.17-.28.29-.47.51-.9l0,0c4.89-2.77,9.53-5.81,14-9,5.26-3.68,10.34-7.5,15.46-11.14,2.57-1.8,5.16-3.55,7.77-5.17q.92-.58,1.86-1.12a73.44,73.44,0,0,1-9.75,11.09c-4.28,4.07-8.67,8.24-13.21,12.32s-9.36,7.9-13.8,12.42a49.56,49.56,0,0,0-6.13,7.57,33.74,33.74,0,0,0-4,8.84c-.58.37-1.17.73-1.75,1.11q-4.57,3-8.95,6.27c-2.91,2.21-5.75,4.53-8.61,6.84s-5.76,4.55-8.66,7a38.48,38.48,0,0,0-4.16,4,35.57,35.57,0,0,0-3.43,4.64c-1,1.61-1.89,3.2-2.85,4.63a23.22,23.22,0,0,1-3.22,3.88,50.13,50.13,0,0,1-4.13,3.26,45.48,45.48,0,0,0-4.25,3.63q-1.07,1.05-2.1,2.14A23,23,0,0,0,471,177a18,18,0,0,0-5,.24,14.78,14.78,0,0,0-4.74,1.85,40.91,40.91,0,0,0-3.94,2.73c-4.94,3.86-9.45,8.05-14.07,12.13s-9.23,8.15-14.11,11.87a79.15,79.15,0,0,1-7.6,5.19,25.22,25.22,0,0,1-8.5,3.4,25.45,25.45,0,0,0,8.74-3,74.25,74.25,0,0,0,7.92-4.84c5.09-3.52,9.92-7.39,14.72-11.27s9.52-7.87,14.47-11.37a38.32,38.32,0,0,1,3.77-2.37,12,12,0,0,1,1.91-.84,10.42,10.42,0,0,1,2-.52,19.42,19.42,0,0,1,6.46.21c-3.48,3.85-6.72,7.87-9.95,11.91,5.7-4.65,11-9.68,16.8-14l4.23-3.31a42.63,42.63,0,0,0,4.41-3.59,23.72,23.72,0,0,0,3.64-4.63c1-1.64,1.82-3.29,2.72-4.8a25.82,25.82,0,0,1,3-4.21,27.51,27.51,0,0,1,3.84-3.47,94,94,0,0,1,9.2-5.75c3.17-1.81,6.39-3.57,9.53-5.45s6.19-3.92,9.14-6.11a194.05,194.05,0,0,0,16.85-14.34c2.68-2.55,5.46-5,8.14-7.53,1.37-1.24,2.66-2.61,3.95-4s2.47-2.8,3.6-4.28c4.63-5.83,8.42-12.21,12.53-18.18a71,71,0,0,1,6.61-8.33c2.37-2.51,7.36-6.69,7.36-6.69h.07a51.91,51.91,0,0,1,8.88,1.53,86.33,86.33,0,0,1,8.82,2.8q4.37,1.61,8.67,3.49a116.52,116.52,0,0,1,16.49,9c2.62,1.74,5.19,3.58,7.67,5.56l1.28,1.05a99.05,99.05,0,0,0-9.37,7.74c-5.25,4.72-9.91,9.91-15.81,13.74a59.89,59.89,0,0,0,9.3-5c3-1.89,5.87-3.9,8.77-5.81a86.82,86.82,0,0,1,11.58-6.61l2.74-1.15c1.21-.47,2.43-.9,3.65-1.25a35.69,35.69,0,0,1,4.67-1l1.38-.24c.48-.1,1-.19,1.44-.3,1-.22,1.9-.47,2.82-.75a69,69,0,0,0,10.51-4.29,71.7,71.7,0,0,0,9.48-5.48c1.48-1,2.89-2.11,4.27-3.2s2.7-2.26,4-3.42c2.6-2.33,5-4.83,7.5-7.15a43.08,43.08,0,0,1,7.89-6.16,20,20,0,0,1,4.35-2,12,12,0,0,1,4.41-.6l.53,0,.65.08c.43.06.87.1,1.3.18q1.3.19,2.59.48c1.72.34,3.43.79,5.11,1.26l4.95,1.4c1.61.5,3.2.85,4.75,1.23,1.94.44,3.85.79,5.74,1.22a8,8,0,0,0,.61,3.92A15.22,15.22,0,0,0,743,78c.48.53.94,1.05,1.35,1.59l1.29,1.5,1.32,1.38,1.36,1.28a59.59,59.59,0,0,0,5.67,4.44,106.17,106.17,0,0,0,12,7.09,101.48,101.48,0,0,0,12.54,5.46,88.39,88.39,0,0,1-11-7.84,89.27,89.27,0,0,1-9.62-9.15,52.77,52.77,0,0,1-4-5L753,77.42l-.75-1.29c-.22-.43-.44-.85-.64-1.28a5.82,5.82,0,0,1-.26-.83l.6.25,4.87,2.06,4.87,1.94q2.76,1.12,5.54,2.19c.12.34.23.68.37,1a23.54,23.54,0,0,0,1.75,3.65,34.38,34.38,0,0,0,2.16,3.4c.81,1.06,1.66,2.09,2.54,3.1s1.84,1.94,2.78,2.88,1.93,1.83,2.93,2.71l1.5,1.32,1.57,1.22c8.38,6.58,18.08,10.86,27.52,14.78l1.49.62,5.57,7.56c2.75,3.62,5.64,7.33,8.83,11A83.16,83.16,0,0,0,837,143.88a110.66,110.66,0,0,0,12.26,8.39l-.22-.15a74.42,74.42,0,0,0,7.35,4.69c2.54,1.4,5.14,2.66,7.77,3.8,2.37,1,4.76,2,7.15,2.87,2.52,2.25,5.09,4.5,7.83,6.67l9.34,7.2c3.16,2.4,6.38,4.78,9.78,6.95a52,52,0,0,0,5.28,3,20.88,20.88,0,0,0,2.81,1.19,14.5,14.5,0,0,0,2.94.73,18.27,18.27,0,0,1-2.53-1.54c-.81-.53-1.55-1.18-2.31-1.8-1.49-1.26-2.93-2.59-4.35-3.94-2.84-2.71-5.62-5.5-8.47-8.25-1.4-1.39-2.85-2.73-4.3-4.09l.57.23c1.31.49,2.61,1,3.92,1.44s2.51.9,3.75,1.41a71.61,71.61,0,0,1,13.93,8c2.2,1.62,4.41,3.26,6.58,5l6.57,5.24c2.23,1.74,4.48,3.48,6.87,5.1a78.45,78.45,0,0,0,7.45,4.34,134,134,0,0,0,15.54,6.83c2.64,1,5.31,1.91,8,2.69q2,.59,4.1,1.06c.7.13,1.37.32,2.08.39.35,0,.7.11,1.05.13l1.06,0-1-.17c-.34-.07-.68-.18-1-.27-.67-.17-1.33-.43-2-.64q-2-.7-3.9-1.53c-2.56-1.11-5.11-2.24-7.61-3.48s-5-2.53-7.42-3.85-4.86-2.7-7.2-4.16a74.81,74.81,0,0,1-6.75-4.66c-2.14-1.68-4.23-3.49-6.3-5.34-4.14-3.72-8.3-7.56-12.85-11.09-2.28-1.75-4.66-3.41-7.13-5a66.57,66.57,0,0,0-7.84-4c-.67-.31-1.38-.54-2.06-.82s-1.39-.54-2.06-.74c-1.34-.45-2.7-.85-4.06-1.22-2.73-.73-5.47-1.34-8.17-2a81.2,81.2,0,0,1-7.91-2.6c-1.3-.48-2.58-1-3.85-1.51s-2.52-1.1-3.74-1.71a67.59,67.59,0,0,1-13.65-8.78h0l-.21-.15a63.23,63.23,0,0,1-10.35-9c-3.12-3.35-5.91-7-8.84-10.63-1.21-1.48-2.43-3-3.7-4.48q4,2.36,7.92,4.85c8.52,5.39,17,10.94,26,15.77l1.68.91c.59.3,1.23.58,1.84.87l1.85.86c.62.29,1.23.49,1.84.74,1.23.46,2.46,1,3.68,1.4l3.68,1.23c4.89,1.57,9.79,3,14.67,4.29,9.78,2.64,19.54,5.14,29.21,8s19.28,5.81,28.71,9.34,18.78,7.33,27.95,11.63a251.55,251.55,0,0,0-26.85-14.3c-9.24-4.22-18.7-8-28.25-11.45q-3.1-1.13-6.21-2.22c5.13,1.1,10.2,2.09,15.19,3.21,6.68,1.51,13.24,3.25,19.72,5.34,3.27,1.05,6.4,2.09,9.53,3.33s6.26,2.54,9.38,3.94c6.22,2.82,12.4,5.92,18.47,9.32,7.67,4.25,15.25,8.8,23.14,13A152.2,152.2,0,0,0,995,192.32c5.68,1.53,11.31,3,16.81,4.84s10.87,3.86,16.12,6.18,10.37,4.89,15.59,7.51c2.6,1.31,5.23,2.66,8,3.84a78.2,78.2,0,0,0,8.39,3.13,153.13,153.13,0,0,0,17.47,4.18c5.84,1.09,11.68,1.89,17.52,2.59s11.69,1.21,17.53,1.67,11.7.75,17.55.88c-5.73-1.19-11.45-2.39-17.14-3.69s-11.36-2.6-17-4.06c-11.26-2.86-22.37-6-32.77-10.4l-1.38-.56q3.56.26,7.11.41c7.05.27,14,.3,20.86.73,1.71.12,3.41.23,5.1.42s3.37.36,5.06.57a87.82,87.82,0,0,1,9.88,2.14c6.67,1.76,13.35,3.77,20,5.8l20,6.16c13.37,4.1,26.77,8.16,40.3,11.75q10.14,2.72,20.48,4.72a115.89,115.89,0,0,0,20.84,2.46A115.31,115.31,0,0,1,1210.76,239.9ZM559.89,105.22a52.25,52.25,0,0,1-7,8.11,65.71,65.71,0,0,1-8.52,6.7c-2.51,1.67-5.08,3.24-7.67,4.8A28.92,28.92,0,0,1,541.1,117,67.08,67.08,0,0,1,554,104.6c3.93-3,8.06-5.82,11.91-9.1A96.42,96.42,0,0,1,559.89,105.22Zm311.63,34.7-1.58-.75-1.58-.76-1.66-.87c-8.82-4.7-17.75-9.42-26.8-14-4.53-2.29-9.06-4.61-13.65-6.83-1.15-.55-2.29-1.11-3.44-1.69s-2.27-1.18-3.4-1.78c-2.26-1.2-4.45-2.37-6.63-3.62a133.47,133.47,0,0,1-12.45-8.16c-4-2.93-7.7-6-11.32-9.18-2.07-1.8-4.07-3.65-6-5.54,5.8,2.38,11.59,4.8,17.18,7.56,3.13,1.46,6.16,3.11,9.17,4.76,1.51.82,3,1.69,4.46,2.54s2.86,1.82,4.3,2.74c2.91,1.93,5.83,3.85,8.71,5.85s5.8,3.93,8.65,6q8.61,6.06,17.4,11.94c5.88,3.92,11.8,7.8,18.09,11.31.64.37,1.3.73,1.95,1.08C872.43,140.3,872,140.13,871.52,139.92Z"/><path class="cls-1" d="M204.81,427.2c0-5.46,3.44-12.31,9.4-12.31s9.27,6.45,9.27,12.31c0,5.53-3.31,12.31-9.3,12.31S204.81,432.5,204.81,427.2Zm9.4-11.91c-5.3,0-6.55,7.94-6.55,11.91,0,4.3,1.29,11.92,6.52,11.92s6.45-7.31,6.45-11.92C220.63,422.77,219.51,415.29,214.21,415.29Z"/><path class="cls-1" d="M237.05,433.82v4.9h2.61v.4h-7.91v-.4h2.65v-4.9c-3.18,0-9.27-1.22-9.27-6.62s6.09-6.59,9.27-6.62v-4.9h-2.65v-.4h7.94v.4h-2.65v4.9c3.18,0,9.27,1.22,9.27,6.62S240.23,433.79,237.05,433.82Zm-2.65-12.87h-.07a6.26,6.26,0,1,0,0,12.51h.07Zm2.71,0h-.07v12.51h.07a6.26,6.26,0,1,0,0-12.51Z"/><path class="cls-1" d="M248,439.12v-.4h2.65v-23H248v-.4h7.94v.4h-2.65v18.87l10.59-15.92v-2.95h-2.65v-.4h7.94v.4h-2.65v23h2.65v.4h-7.94v-.4h2.65V419.36l-10.59,16v3.41h2.65v.4Z"/><path class="cls-1" d="M290.44,443.29c-1.26,0-7.25-1.09-8.74-1.09a10.35,10.35,0,0,0-5.13,1.29l-.17-.33a10.64,10.64,0,0,1,6.32-2.32c1.46,0,6.72,1.13,7.71,1.13,1.89,0,2.38-.63,2.38-1.29,0-.86-.76-1.56-2.52-1.56H271.14v-.4h2.65v-23h-2.65v-.4h7.94v.4h-2.65v23H287v-23h-2.65v-.4h7.94v.4h-2.65v21.84c0,.93.46,1.13,1.13,1.22.93.13,2.42.36,2.42,1.92A2.53,2.53,0,0,1,290.44,443.29Z"/><path class="cls-1" d="M294.31,439.12v-.4H297v-23h-2.65v-.4h7.94v.4h-2.65v18.87l10.59-15.92v-2.95h-2.65v-.4h7.94v.4h-2.65v23h2.65v.4h-7.94v-.4h2.65V419.36l-10.59,16v3.41h2.65v.4Z"/><path class="cls-1" d="M328.57,439.12v-.4h2.68l-3.14-9.8h-6l-3.18,9.8h2.68v.4h-5.3v-.4h2.18l7.74-24.23L334,438.72h2.55v.4Zm-3.44-19.46-2.88,8.87H328Z"/><path class="cls-1" d="M346.34,425.42c-2.18,2.88-5.69,8.11-5.69,11.42,0,.76.07,1.89,1.26,1.89H344v.4H336v-.4h2.65a29.17,29.17,0,0,1,1.89-5.1c2.85-6.22,8.54-12.38,11.35-15.79v-2.15h-2.65v-.4h7.94v.4h-2.65v23h2.65v.4h-7.94v-.4h2.65V418.47C350.11,420.52,347.83,423.43,346.34,425.42Z"/><path class="cls-1" d="M364.48,415.69v10.19h4a6.62,6.62,0,0,1,0,13.24h-9.27v-.4h2.65v-23h-2.65v-.4h7.94v.4Zm0,23h1.22a6.16,6.16,0,0,0,6.59-6.22c0-3-1.79-6.22-6.59-6.22h-1.22Z"/><path class="cls-1" d="M381.69,426.28v12.44h2.65v.4H376.4v-.4H379v-23H376.4v-.4h7.94v.4h-2.65v10.19h10.59V415.69h-2.65v-.4h7.94v.4h-2.65v23h2.65v.4h-7.94v-.4h2.65V426.28Z"/><path class="cls-1" d="M404.86,415.69v10.19h4a6.62,6.62,0,0,1,0,13.24h-9.27v-.4h2.65v-23h-2.65v-.4h7.94v.4Zm0,23h1.22a6.16,6.16,0,0,0,6.59-6.22c0-3-1.79-6.22-6.59-6.22h-1.22Zm10.59.4v-.4h2.65v-23h-2.65v-.4h7.94v.4h-2.65v23h2.65v.4Z"/><path class="cls-1" d="M425.38,439.12v-.4H428v-23h-2.65v-.4h7.94v.4h-2.65v18.87l10.59-15.92v-2.95h-2.65v-.4h7.94v.4h-2.65v23h2.65v.4h-7.94v-.4h2.65V419.36l-10.59,16v3.41h2.65v.4Zm10.82-25.38c-3.64,0-4.37-2.85-4.37-5.69h.33a4.06,4.06,0,0,0,8.08,0h.3C440.54,410.89,439.81,413.73,436.2,413.73Z"/><path class="cls-1" d="M476.05,420.35c-1.36,0-1.59-1.79-2.85-3.11a6,6,0,0,0-4.27-2c-5.73,0-7.61,7.08-7.61,11.91,0,4.17,1.16,11.92,7.61,11.92,2.38,0,5.49-1.85,5.49-3.77,0-.86-.73-1-1.19-1h-.33V434h3.57c-.79,3.18-4.43,5.53-7.55,5.53-8,0-10.46-7.25-10.46-12.31s2.88-12.31,10.46-12.31a11,11,0,0,1,5.06,1.19c1.65.93,3,2.25,3,3.24A.94.94,0,0,1,476.05,420.35Z"/><path class="cls-1" d="M490.09,439.12v-.4h2.68l-3.14-9.8h-6l-3.18,9.8h2.68v.4h-5.3v-.4H480l7.74-24.23,7.71,24.23H498v.4Zm-3.44-19.46-2.88,8.87h5.73Z"/><path class="cls-1" d="M498.86,439.12v-.4h2.65v-23h-2.65v-.4h7.94v.4h-2.65v18.87l10.59-15.92v-2.95H512.1v-.4H520v.4h-2.65v23H520v.4H512.1v-.4h2.65V419.36l-10.59,16v3.41h2.65v.4Zm10.82-25.38c-3.64,0-4.37-2.85-4.37-5.69h.33a4.06,4.06,0,0,0,8.08,0h.3C514,410.89,513.29,413.73,509.68,413.73Z"/><path class="cls-1" d="M537,419.66c-.86-2.81-1.39-4-2.88-4h-3.61v23h2.61v.4h-7.91v-.4h2.65v-23h-3.61c-1.49,0-2,1.16-2.88,4H521a21.8,21.8,0,0,0,.4-3.54V413.8h.27c.2.56.53,1.49,2.38,1.49h10.13c1.85,0,2.18-.93,2.38-1.49h.26v2.32a21.79,21.79,0,0,0,.4,3.54Z"/><path class="cls-1" d="M561.41,439.12v-.4h2.65v-23H553.47v23h2.65v.4h-7.94v-.4h2.65v-23h-2.65v-.4h21.18v.4h-2.65v23h2.65v.4Z"/><path class="cls-1" d="M572,439.52a3.7,3.7,0,0,1-3-1.36l.17-.17a3.29,3.29,0,0,0,2.28,1.13c2.75,0,3.44-3,5-7.45a10.79,10.79,0,0,1,4.83-5.83,9.86,9.86,0,0,1-1.49.1c-5.2,0-5.86-3.44-5.86-5.16a6.17,6.17,0,0,1,6.55-5.89c4,0,6.42,2.78,6.42,7.21v16.61h2.65v.4H581.6v-.4h2.65V423c0-3.41-.3-7.68-3.77-7.68-3.28,0-3.91,3.84-3.91,5.49,0,1.92.66,4.7,4.37,4.7a6.32,6.32,0,0,0,1.79-.26l.1.33c-3.14.83-3.71,5.33-4.6,8S575.48,439.52,572,439.52Z"/><path class="cls-1" d="M606,419.66c-.86-2.81-1.39-4-2.88-4h-3.61v23h2.61v.4h-7.91v-.4h2.65v-23h-3.61c-1.49,0-2,1.16-2.88,4H590a21.8,21.8,0,0,0,.4-3.54V413.8h.27c.2.56.53,1.49,2.38,1.49h10.13c1.85,0,2.18-.93,2.38-1.49h.26v2.32a21.79,21.79,0,0,0,.4,3.54Z"/><path class="cls-1" d="M607.25,439.12v-.4h2.65v-23h-2.65v-.4h7.94v.4h-2.65v18.87l10.59-15.92v-2.95h-2.65v-.4h7.94v.4h-2.65v23h2.65v.4h-7.94v-.4h2.65V419.36l-10.59,16v3.41h2.65v.4Z"/><path class="cls-1" d="M646,419.66c-.86-2.81-1.39-4-2.88-4h-7.41v23h2.65v.4h-7.94v-.4h2.65v-23h-2.65v-.4h12.84c1.85,0,2.18-.93,2.38-1.49h.26v2.32a21.85,21.85,0,0,0,.4,3.54Z"/><path class="cls-1" d="M647,427.2c0-5.46,3.44-12.31,9.4-12.31s9.27,6.45,9.27,12.31c0,5.53-3.31,12.31-9.3,12.31S647,432.5,647,427.2Zm9.4-11.91c-5.3,0-6.55,7.94-6.55,11.91,0,4.3,1.29,11.92,6.52,11.92s6.45-7.31,6.45-11.92C662.79,422.77,661.67,415.29,656.37,415.29Z"/><path class="cls-1" d="M672.59,438.72h2.65v.4h-7.94v-.4h2.65V422.17c0-4.43,2.65-7.28,6.62-7.28a6.82,6.82,0,0,1,6.62,6.85,6.71,6.71,0,0,1-7,6.79h-3.64Zm0-15.69v5.1h1.79a6.14,6.14,0,0,0,6-6.39c0-2.88-1-6.45-3.81-6.45C673.09,415.29,672.59,419.62,672.59,423Z"/><path class="cls-1" d="M702.08,420.35c-1.36,0-1.59-1.79-2.85-3.11a6,6,0,0,0-4.27-2c-5.73,0-7.61,7.08-7.61,11.91,0,4.17,1.16,11.92,7.61,11.92,2.38,0,5.49-1.85,5.49-3.77,0-.86-.73-1-1.19-1h-.33V434h3.57c-.79,3.18-4.43,5.53-7.55,5.53-8,0-10.46-7.25-10.46-12.31s2.88-12.31,10.46-12.31a11,11,0,0,1,5.06,1.19c1.66.93,3,2.25,3,3.24A.94.94,0,0,1,702.08,420.35Z"/><path class="cls-1" d="M710.32,415.69v10.09h2a42.58,42.58,0,0,1,3.47-6.52c2.25-3,4.2-4.37,5.53-4.37s2.22.6,2.22,1.69a1,1,0,0,1-1,1.13c-1.19,0-1.19-1.52-2.61-1.52-1.06,0-2.55,1.69-3.71,3.24a33.41,33.41,0,0,0-3.44,6.39c3.14.4,4.07,2.75,5.16,5.79,1.56,4.4,2.42,7.48,5.16,7.48a3.29,3.29,0,0,0,2.28-1.12l.2.2a3.7,3.7,0,0,1-3,1.36c-3.44,0-5.3-3.41-6.16-6-1.36-4.1-2.42-7.31-5.79-7.31h-.26v12.54H713v.4H705v-.4h2.65v-23H705v-.4H713v.4Z"/><path class="cls-1" d="M724.89,427.2c0-5.46,3.44-12.31,9.4-12.31s9.27,6.45,9.27,12.31c0,5.53-3.31,12.31-9.3,12.31S724.89,432.5,724.89,427.2Zm9.4-11.91c-5.3,0-6.55,7.94-6.55,11.91,0,4.3,1.29,11.92,6.52,11.92s6.45-7.31,6.45-11.92C740.71,422.77,739.58,415.29,734.29,415.29Z"/><path class="cls-1" d="M745.54,439.12v-.4h2.65v-23h-2.65v-.4h7.94v.4h-2.65v18.87l10.59-15.92v-2.95h-2.65v-.4h7.94v.4h-2.65v23h2.65v.4h-7.94v-.4h2.65V419.36l-10.59,16v3.41h2.65v.4Zm10.82-25.38c-3.64,0-4.37-2.85-4.37-5.69h.33a4.06,4.06,0,0,0,8.08,0h.3C760.7,410.89,760,413.73,756.36,413.73Z"/><path class="cls-1" d="M778.64,439.12v-.4h2.65v-23h-2.65v-.4h7.94v.4h-2.65v18.87l10.59-15.92v-2.95h-2.65v-.4h7.94v.4h-2.65v23h2.65v.4h-7.94v-.4h2.65V419.36l-10.59,16v3.41h2.65v.4Z"/><path class="cls-1" d="M820.34,428.79c-4.24,0-7-6.29-7-11.19v-1.92h-2.65v-.4h7.94v.4H816v2.25c0,4.2.93,10.19,4.8,10.19a4.45,4.45,0,0,0,3.14-1.26V415.69h-2.65v-.4h7.94v.4h-2.65v23h2.62v.4h-7.91v-.4H824V427.4A5.31,5.31,0,0,1,820.34,428.79Z"/><path class="cls-1" d="M840,429.59V427.5a1.12,1.12,0,0,0-1.29-1.22h-2.12v12.44h7c2.22,0,3-1.09,3.38-3.28l.23-1.52h.26a34.07,34.07,0,0,0-.33,3.91c0,.53.13,1.59.2,2.12H847c-.17-.53-.3-.83-.73-.83H831.26v-.4h2.65v-23h-2.65v-.4h13.11c1.82,0,2.58-.5,2.78-1.26h.23a12,12,0,0,0-.23,2.18,27.43,27.43,0,0,0,.17,4.37H847l-.3-2.32a2.75,2.75,0,0,0-2.91-2.58h-7.28v10.19h2.22a1.16,1.16,0,0,0,1.19-1.16v-2.15h.4v7Z"/><path class="cls-1" d="M854,438.72h2.65v.4h-7.94v-.4h2.65V422.17c0-4.43,2.65-7.28,6.62-7.28a6.82,6.82,0,0,1,6.62,6.85,6.71,6.71,0,0,1-7,6.79H854ZM854,423v5.1h1.79a6.14,6.14,0,0,0,6-6.39c0-2.88-1-6.45-3.81-6.45C854.53,415.29,854,419.62,854,423Z"/><path class="cls-1" d="M871.25,415.69v10.09h2a42.58,42.58,0,0,1,3.47-6.52c2.25-3,4.2-4.37,5.53-4.37s2.22.6,2.22,1.69a1,1,0,0,1-1,1.13c-1.19,0-1.19-1.52-2.62-1.52-1.06,0-2.55,1.69-3.71,3.24a33.41,33.41,0,0,0-3.44,6.39c3.14.4,4.07,2.75,5.16,5.79,1.56,4.4,2.42,7.48,5.16,7.48A3.29,3.29,0,0,0,886.3,438l.2.2a3.7,3.7,0,0,1-3,1.36c-3.44,0-5.3-3.41-6.16-6-1.36-4.1-2.42-7.31-5.79-7.31h-.26v12.54h2.65v.4H866v-.4h2.65v-23H866v-.4h7.94v.4Z"/><path class="cls-1" d="M894.51,429.59V427.5a1.12,1.12,0,0,0-1.29-1.22H891.1v12.44h7c2.22,0,3-1.09,3.38-3.28l.23-1.52H902a34.07,34.07,0,0,0-.33,3.91c0,.53.13,1.59.2,2.12h-.23c-.17-.53-.3-.83-.73-.83H885.81v-.4h2.65v-23h-2.65v-.4h13.11c1.82,0,2.58-.5,2.78-1.26h.23a12,12,0,0,0-.23,2.18,27.43,27.43,0,0,0,.17,4.37h-.26l-.3-2.32a2.75,2.75,0,0,0-2.91-2.58H891.1v10.19h2.22a1.16,1.16,0,0,0,1.19-1.16v-2.15h.4v7Z"/><path class="cls-1" d="M921.19,420.35c-1.36,0-1.59-1.79-2.85-3.11a6,6,0,0,0-4.27-2c-5.73,0-7.61,7.08-7.61,11.91,0,4.17,1.16,11.92,7.61,11.92,2.38,0,5.49-1.85,5.49-3.77,0-.86-.73-1-1.19-1H918V434h3.57c-.79,3.18-4.43,5.53-7.55,5.53-8,0-10.46-7.25-10.46-12.31s2.88-12.31,10.46-12.31a11,11,0,0,1,5.06,1.19c1.66.93,3,2.25,3,3.24A.94.94,0,0,1,921.19,420.35Z"/><path class="cls-1" d="M941.71,420.35c-1.36,0-1.59-1.79-2.85-3.11a6,6,0,0,0-4.27-2c-5.73,0-7.61,7.08-7.61,11.91,0,4.17,1.16,11.92,7.61,11.92,2.38,0,5.49-1.85,5.49-3.77,0-.86-.73-1-1.19-1h-.33V434h3.57c-.79,3.18-4.43,5.53-7.55,5.53-8,0-10.46-7.25-10.46-12.31s2.88-12.31,10.46-12.31a11,11,0,0,1,5.06,1.19c1.66.93,3,2.25,3,3.24A.94.94,0,0,1,941.71,420.35Z"/><path class="cls-1" d="M950,415.69v10.09h2a42.58,42.58,0,0,1,3.47-6.52c2.25-3,4.2-4.37,5.53-4.37s2.22.6,2.22,1.69a1,1,0,0,1-1,1.13c-1.19,0-1.19-1.52-2.62-1.52-1.06,0-2.55,1.69-3.71,3.24a33.41,33.41,0,0,0-3.44,6.39c3.14.4,4.07,2.75,5.16,5.79,1.56,4.4,2.42,7.48,5.16,7.48A3.29,3.29,0,0,0,965,438l.2.2a3.7,3.7,0,0,1-3,1.36c-3.44,0-5.3-3.41-6.16-6-1.36-4.1-2.42-7.31-5.79-7.31H950v12.54h2.65v.4h-7.94v-.4h2.65v-23h-2.65v-.4h7.94v.4Z"/><path class="cls-1" d="M964.52,427.2c0-5.46,3.44-12.31,9.4-12.31s9.27,6.45,9.27,12.31c0,5.53-3.31,12.31-9.3,12.31S964.52,432.5,964.52,427.2Zm9.4-11.91c-5.3,0-6.55,7.94-6.55,11.91,0,4.3,1.29,11.92,6.52,11.92s6.45-7.31,6.45-11.92C980.34,422.77,979.21,415.29,973.92,415.29Z"/><path class="cls-1" d="M985.17,439.12v-.4h2.65v-23h-2.65v-.4h7.94v.4h-2.65v18.87l10.59-15.92v-2.95h-2.65v-.4h7.94v.4h-2.65v23h2.65v.4h-7.94v-.4h2.65V419.36l-10.59,16v3.41h2.65v.4ZM996,413.73c-3.64,0-4.37-2.85-4.37-5.69H992a4.06,4.06,0,0,0,8.08,0h.3C1000.33,410.89,999.6,413.73,996,413.73Z"/><path class="cls-1" d="M1027,429.59V427.5a1.12,1.12,0,0,0-1.29-1.22h-2.12v12.44h7c2.22,0,3-1.09,3.38-3.28l.23-1.52h.26a34.07,34.07,0,0,0-.33,3.91c0,.53.13,1.59.2,2.12h-.23c-.17-.53-.3-.83-.73-.83h-15.06v-.4h2.65v-23h-2.65v-.4h13.11c1.82,0,2.58-.5,2.78-1.26h.23a12,12,0,0,0-.23,2.18,27.43,27.43,0,0,0,.17,4.37h-.26l-.3-2.32a2.75,2.75,0,0,0-2.91-2.58h-7.28v10.19h2.22a1.16,1.16,0,0,0,1.19-1.16v-2.15h.4v7Z"/><path class="cls-1" d="M1049.31,439.12v-.4H1052v-23h-10.59v23H1044v.4h-7.94v-.4h2.65v-23h-2.65v-.4h21.18v.4h-2.65v23h2.65v.4Z"/><path class="cls-1" d="M1070.33,439.12v-.4H1073l-3.14-9.8h-6l-3.18,9.8h2.68v.4h-5.29v-.4h2.18l7.75-24.23,7.71,24.23h2.55v.4Zm-3.44-19.46-2.88,8.87h5.73Z"/><path class="cls-1" d="M1084.07,438.72h2.65v.4h-7.94v-.4h2.65V422.17c0-4.43,2.65-7.28,6.62-7.28a6.82,6.82,0,0,1,6.62,6.85,6.71,6.71,0,0,1-7,6.79h-3.64Zm0-15.69v5.1h1.79a6.14,6.14,0,0,0,6-6.39c0-2.88-1-6.45-3.81-6.45C1084.56,415.29,1084.07,419.62,1084.07,423Z"/><path class="cls-1" d="M1107.67,439.12v-.4h2.48l-5.86-11.09-6.16,11.09h2v.4h-5.29v-.4h2.81l6.42-11.55L1098,415.69h-2.65v-.4h8v.4h-2.05l4.4,8.54,3.38-6.09c.86-1.56,2.15-3.24,3.81-3.24a2.87,2.87,0,0,1,2.35,1.36,4.38,4.38,0,0,0-1.22,2.12h-.17c0-1-.5-2.18-1.66-2.18-1.49,0-2.81,2.28-3.47,3.47l-2.78,5,7.25,14H1116v.4Z"/><path class="cls-1" d="M1116.83,439.12v-.4h2.65v-23h-2.65v-.4h7.94v.4h-2.65v18.87l10.59-15.92v-2.95h-2.65v-.4H1138v.4h-2.65v23H1138v.4h-7.94v-.4h2.65V419.36l-10.59,16v3.41h2.65v.4Z"/><path class="cls-1" d="M1140,439.12v-.4h2.65v-23H1140v-.4h7.94v.4h-2.65v18.87l10.59-15.92v-2.95h-2.65v-.4h7.94v.4h-2.65v23h2.65v.4h-7.94v-.4h2.65V419.36l-10.59,16v3.41h2.65v.4Z"/></svg>